<svg width="30" height="30" viewBox="0 0 30 30" fill="none" xmlns="http://www.w3.org/2000/svg">
<path d="M15.0001 28.3332C22.3639 28.3332 28.3334 22.3636 28.3334 14.9998C28.3334 7.63604 22.3639 1.6665 15.0001 1.6665C7.63628 1.6665 1.66675 7.63604 1.66675 14.9998C1.66675 22.3636 7.63628 28.3332 15.0001 28.3332Z" stroke="#8E7CC3" stroke-width="2.66667" stroke-linecap="round" stroke-linejoin="round"/>
<path d="M12.3334 9.66667V15H17.0001C17.7073 15 18.3856 14.719 18.8857 14.219C19.3858 13.7189 19.6667 13.0406 19.6667 12.3333C19.6667 11.6261 19.3858 10.9478 18.8857 10.4477C18.3856 9.94762 17.7073 9.66667 17.0001 9.66667H15.6667M12.3334 9.66667H9.66675M12.3334 9.66667V7M12.3334 9.66667H15.6667M15.6667 9.66667V7" stroke="#8E7CC3" stroke-width="2.66667" stroke-linecap="round" stroke-linejoin="round"/>
<path d="M12.3334 20.3333V15H18.3334C19.0407 15 19.7189 15.281 20.219 15.781C20.7191 16.2811 21.0001 16.9594 21.0001 17.6667C21.0001 18.3739 20.7191 19.0522 20.219 19.5523C19.7189 20.0524 19.0407 20.3333 18.3334 20.3333H15.6667M12.3334 20.3333V23M12.3334 20.3333H9.66675H15.6667M12.3334 20.3333H15.6667M15.6667 20.3333V23" stroke="#8E7CC3" stroke-width="2.66667" stroke-linecap="round" stroke-linejoin="round"/>
</svg>
