<svg width="24" height="24" viewBox="0 0 32 32" fill="none" xmlns="http://www.w3.org/2000/svg">
<g clip-path="url(#clip0_55_463)">
<g clip-path="url(#clip1_55_463)">
<path fill-rule="evenodd" clip-rule="evenodd" d="M32 16C32 20.2435 30.3143 24.3131 27.3137 27.3137C24.3131 30.3143 20.2435 32 16 32C11.7565 32 7.68687 30.3143 4.68629 27.3137C1.68571 24.3131 0 20.2435 0 16C0 11.7565 1.68571 7.68687 4.68629 4.68629C7.68687 1.68571 11.7565 0 16 0C20.2435 0 24.3131 1.68571 27.3137 4.68629C30.3143 7.68687 32 11.7565 32 16ZM17.7143 7.42857C17.7143 6.97392 17.5337 6.53788 17.2122 6.21639C16.8907 5.8949 16.4547 5.71429 16 5.71429C15.5453 5.71429 15.1093 5.8949 14.7878 6.21639C14.4663 6.53788 14.2857 6.97392 14.2857 7.42857V8.59429C13.2792 8.70258 12.3441 9.16532 11.6474 9.89979C10.9508 10.6343 10.5381 11.5926 10.4831 12.6034C10.4282 13.6142 10.7345 14.6116 11.3474 15.4173C11.9603 16.2229 12.8398 16.7844 13.8286 17.0011L17.1977 17.7394C17.4744 17.7984 17.7194 17.9579 17.8852 18.1871C18.0511 18.4163 18.126 18.6988 18.0956 18.9801C18.0652 19.2613 17.9315 19.5213 17.7205 19.7097C17.5094 19.8981 17.236 20.0015 16.9531 20H15.0469C14.8108 19.9999 14.5805 19.9266 14.3877 19.7903C14.195 19.654 14.0491 19.4614 13.9703 19.2389C13.8187 18.81 13.503 18.4588 13.0926 18.2627C12.6821 18.0666 12.2106 18.0416 11.7817 18.1931C11.3528 18.3447 11.0017 18.6604 10.8056 19.0709C10.6095 19.4813 10.5844 19.9528 10.736 20.3817C11.2823 21.9223 12.6331 23.088 14.2857 23.3646V24.5714C14.2857 25.0261 14.4663 25.4621 14.7878 25.7836C15.1093 26.1051 15.5453 26.2857 16 26.2857C16.4547 26.2857 16.8907 26.1051 17.2122 25.7836C17.5337 25.4621 17.7143 25.0261 17.7143 24.5714V23.3646C18.7605 23.1866 19.7122 22.6503 20.4065 21.8477C21.1007 21.0451 21.4942 20.026 21.5196 18.9651C21.545 17.9042 21.2007 16.8674 20.5457 16.0325C19.8906 15.1976 18.9656 14.6164 17.9291 14.3886L14.5623 13.6526C14.362 13.6073 14.1854 13.4901 14.066 13.323C13.9466 13.156 13.8928 12.9509 13.9148 12.7468C13.9368 12.5427 14.0332 12.3538 14.1854 12.2161C14.3377 12.0784 14.5353 12.0015 14.7406 12H16.9531C17.1892 12.0001 17.4195 12.0734 17.6123 12.2097C17.805 12.346 17.9509 12.5386 18.0297 12.7611C18.1048 12.9735 18.2209 13.169 18.3715 13.3365C18.5221 13.504 18.7042 13.6402 18.9074 13.7373C19.1107 13.8344 19.331 13.8905 19.5559 13.9024C19.7809 13.9144 20.0059 13.8819 20.2183 13.8069C20.4307 13.7318 20.6262 13.6157 20.7936 13.4651C20.9611 13.3145 21.0973 13.1324 21.1944 12.9291C21.2915 12.7259 21.3476 12.5056 21.3596 12.2806C21.3715 12.0557 21.339 11.8307 21.264 11.6183C20.992 10.8497 20.5195 10.1679 19.8954 9.64343C19.2712 9.11896 18.5182 8.77094 17.7143 8.63543V7.42857Z" fill="#14AE5C"/>
</g>
</g>
<defs>
<clipPath id="clip0_55_463">
<rect width="32" height="32" fill="white"/>
</clipPath>
<clipPath id="clip1_55_463">
<rect width="32" height="32" fill="white"/>
</clipPath>
</defs>
</svg>
