<svg width="150" height="146" viewBox="0 0 300 146" fill="none" xmlns="http://www.w3.org/2000/svg">
<rect y="0.341614" width="150" height="145.342" rx="20" fill="transpranet"/>
<g clip-path="url(#clip0_16_178)">
<g clip-path="url(#clip1_16_178)">
<path d="M62.795 101.987C88.5226 101.987 109.379 81.1311 109.379 55.4036C109.379 29.676 88.5226 8.8197 62.795 8.8197C37.0675 8.8197 16.2112 29.676 16.2112 55.4036C16.2112 81.1311 37.0675 101.987 62.795 101.987Z" stroke="currentColor" stroke-width="5.59006" stroke-linecap="round" stroke-linejoin="round"/>
<path d="M53.4784 36.7701V55.4037H69.7827C72.2537 55.4037 74.6235 54.4221 76.3707 52.6749C78.1179 50.9276 79.0995 48.5579 79.0995 46.0869C79.0995 43.6159 78.1179 41.2462 76.3707 39.499C74.6235 37.7517 72.2537 36.7701 69.7827 36.7701H65.1244M53.4784 36.7701H44.1616M53.4784 36.7701V27.4534M53.4784 36.7701H65.1244M65.1244 36.7701V27.4534" stroke="currentColor" stroke-width="5.59006" stroke-linecap="round" stroke-linejoin="round"/>
<path d="M53.4784 74.0372V55.4037H74.4411C76.9121 55.4037 79.2818 56.3853 81.0291 58.1325C82.7763 59.8797 83.7579 62.2495 83.7579 64.7205C83.7579 67.1914 82.7763 69.5612 81.0291 71.3084C79.2818 73.0556 76.9121 74.0372 74.4411 74.0372H65.1244M53.4784 74.0372V83.354M53.4784 74.0372H44.1616H65.1244M53.4784 74.0372H65.1244M65.1244 74.0372V83.354" stroke="currentColor" stroke-width="5.59006" stroke-linecap="round" stroke-linejoin="round"/>
</g>
<g clip-path="url(#clip2_16_178)">
<g clip-path="url(#clip3_16_178)">
<path d="M274.297 31.071C272.939 30.9153 240.617 27.2297 202.379 27.2297C164.142 27.2297 131.827 30.9153 130.469 31.071C126.678 31.5065 124.399 33.3971 125.186 35.3124C125.96 37.1994 129.632 38.3607 133.613 37.9712C133.937 37.9394 165.886 34.3069 202.386 34.3069C238.887 34.3069 270.836 37.9323 271.152 37.9712C274.965 38.4138 278.714 37.2171 279.579 35.3124C280.444 33.4077 278.081 31.5065 274.297 31.071Z" fill="currentColor"/>
<path d="M274.297 43.5817C272.939 43.4259 240.617 39.7404 202.379 39.7404C164.142 39.7404 131.827 43.4259 130.469 43.5817C126.678 44.0171 124.399 45.9077 125.186 47.823C125.96 49.71 129.632 50.8713 133.613 50.4818C133.937 50.45 165.886 46.8176 202.386 46.8176C238.887 46.8176 270.836 50.4429 271.152 50.4818C274.965 50.9244 278.714 49.7277 279.579 47.823C280.445 45.9183 278.081 44.0171 274.297 43.5817Z" fill="currentColor"/>
<path d="M274.297 56.0922C272.939 55.9364 240.617 52.2509 202.379 52.2509C164.142 52.2509 131.827 55.9364 130.469 56.0922C126.678 56.5276 124.399 58.4182 125.186 60.3335C125.96 62.2205 129.632 63.3818 133.613 62.9923C133.937 62.9605 165.886 59.3281 202.386 59.3281C238.887 59.3281 270.836 62.9534 271.152 62.9923C274.965 63.4349 278.714 62.2382 279.579 60.3335C280.445 58.4288 278.081 56.5276 274.297 56.0922Z" fill="currentColor"/>
<path d="M274.297 68.6028C272.939 68.447 240.617 64.7615 202.379 64.7615C164.142 64.7615 131.827 68.4435 130.469 68.6028C126.678 69.0382 124.399 70.9288 125.186 72.8441C125.96 74.7312 129.632 75.8924 133.613 75.503C133.937 75.4711 165.886 71.8387 202.386 71.8387C238.887 71.8387 270.836 75.464 271.152 75.503C274.965 75.9455 278.714 74.7489 279.579 72.8441C280.444 70.9394 278.081 69.0382 274.297 68.6028Z" fill="currentColor"/>
<path d="M274.297 81.1133C272.939 80.9575 240.617 77.272 202.379 77.272C164.142 77.272 131.827 80.9575 130.469 81.1133C126.678 81.5487 124.399 83.4393 125.186 85.3546C125.96 87.2417 129.632 88.4029 133.613 88.0135C133.937 87.9816 165.886 84.3492 202.386 84.3492C238.887 84.3492 270.836 87.9745 271.152 88.0135C274.965 88.456 278.714 87.2594 279.579 85.3546C280.444 83.4499 278.081 81.5487 274.297 81.1133Z" fill="currentColor"/>
</g>
</g>
</g>
<path d="M33.4131 126.901C33.352 127.862 33.1424 128.727 32.7843 129.495C32.4349 130.264 31.9632 130.919 31.3693 131.461C30.7753 132.002 30.0678 132.422 29.2468 132.719C28.4258 133.007 27.5174 133.151 26.5216 133.151C25.7355 133.151 25.0062 133.05 24.3337 132.85C23.6698 132.64 23.0715 132.343 22.5387 131.959C22.0496 131.6 21.6129 131.168 21.2286 130.662C20.853 130.155 20.5342 129.596 20.2721 128.985C20.0188 128.373 19.8223 127.701 19.6825 126.967C19.5515 126.233 19.486 125.456 19.486 124.635V122.067C19.486 121.298 19.5472 120.569 19.6694 119.879C19.7917 119.18 19.9752 118.534 20.2197 117.94C20.4992 117.215 20.8661 116.568 21.3203 116.001C21.7745 115.433 22.2898 114.953 22.8663 114.56C23.3816 114.228 23.945 113.974 24.5564 113.8C25.1765 113.616 25.8404 113.525 26.5478 113.525C27.596 113.525 28.5262 113.673 29.3385 113.97C30.1595 114.267 30.8583 114.691 31.4348 115.241C32.0113 115.791 32.4654 116.464 32.7974 117.258C33.1293 118.053 33.3389 118.949 33.4262 119.944H29.7578C29.7228 119.377 29.6355 118.879 29.4957 118.451C29.3647 118.023 29.1726 117.665 28.9193 117.376C28.6572 117.097 28.3297 116.887 27.9366 116.748C27.5523 116.599 27.0894 116.525 26.5478 116.525C26.2596 116.525 25.9888 116.555 25.7355 116.617C25.491 116.678 25.2639 116.769 25.0542 116.892C24.6961 117.101 24.3904 117.403 24.1371 117.796C23.8926 118.18 23.696 118.63 23.5476 119.145C23.434 119.547 23.351 119.992 23.2986 120.482C23.2462 120.962 23.22 121.482 23.22 122.041V124.635C23.22 125.395 23.2593 126.076 23.3379 126.679C23.4253 127.273 23.5563 127.792 23.731 128.238C23.8533 128.543 23.9974 128.814 24.1633 129.05C24.338 129.286 24.5345 129.482 24.7529 129.64C24.9887 129.814 25.2508 129.945 25.539 130.033C25.836 130.111 26.1635 130.151 26.5216 130.151C27.002 130.151 27.4344 130.089 27.8187 129.967C28.203 129.845 28.5306 129.653 28.8013 129.391C29.0721 129.129 29.2861 128.792 29.4433 128.382C29.6005 127.971 29.6966 127.478 29.7316 126.901H33.4131ZM64.3515 124.74C64.3515 125.561 64.2773 126.342 64.1288 127.085C63.9803 127.818 63.7663 128.5 63.4868 129.129C63.1898 129.758 62.823 130.334 62.3863 130.858C61.9495 131.382 61.4517 131.819 60.8927 132.168C60.3861 132.474 59.8271 132.71 59.2156 132.876C58.613 133.05 57.9622 133.138 57.2635 133.138C56.5211 133.138 55.8354 133.042 55.2065 132.85C54.5776 132.657 54.0055 132.387 53.4902 132.037C52.9836 131.67 52.5294 131.229 52.1276 130.714C51.7258 130.19 51.3896 129.6 51.1188 128.945C50.8742 128.343 50.6864 127.687 50.5554 126.98C50.4331 126.272 50.372 125.526 50.372 124.74V121.962C50.372 121.124 50.4419 120.329 50.5816 119.577C50.7301 118.826 50.9441 118.132 51.2236 117.494C51.4944 116.892 51.8219 116.346 52.2062 115.857C52.5993 115.367 53.0491 114.948 53.5557 114.599C54.0536 114.258 54.6126 113.996 55.2327 113.813C55.8529 113.629 56.5254 113.538 57.2504 113.538C57.9841 113.538 58.6697 113.634 59.3074 113.826C59.9537 114.009 60.5345 114.276 61.0499 114.625C61.5652 114.957 62.015 115.359 62.3994 115.83C62.7924 116.302 63.1287 116.822 63.4082 117.39C63.7139 118.036 63.9454 118.743 64.1026 119.512C64.2685 120.281 64.3515 121.097 64.3515 121.962V124.74ZM60.6175 121.936C60.6175 121.447 60.5913 120.984 60.5389 120.547C60.4952 120.102 60.421 119.691 60.3162 119.315C60.1852 118.844 60.0105 118.425 59.7921 118.058C59.5738 117.682 59.3161 117.376 59.0191 117.141C58.7833 116.966 58.5169 116.831 58.2199 116.734C57.9317 116.638 57.6085 116.59 57.2504 116.59C56.9097 116.59 56.5997 116.634 56.3202 116.721C56.0494 116.809 55.8048 116.935 55.5865 117.101C55.2895 117.346 55.0362 117.652 54.8266 118.018C54.6257 118.385 54.4685 118.813 54.3549 119.302C54.2676 119.678 54.2021 120.088 54.1584 120.534C54.1234 120.979 54.106 121.447 54.106 121.936V124.74C54.106 125.202 54.1234 125.648 54.1584 126.076C54.1933 126.504 54.2545 126.901 54.3418 127.268C54.4379 127.731 54.5776 128.155 54.7611 128.539C54.9532 128.915 55.1759 129.22 55.4292 129.456C55.6651 129.666 55.9315 129.827 56.2285 129.941C56.5342 130.054 56.8792 130.111 57.2635 130.111C57.6303 130.111 57.9666 130.059 58.2723 129.954C58.578 129.849 58.8488 129.696 59.0846 129.495C59.3816 129.251 59.6305 128.945 59.8314 128.578C60.041 128.203 60.207 127.779 60.3293 127.308C60.4254 126.941 60.4952 126.539 60.5389 126.102C60.5913 125.665 60.6175 125.211 60.6175 124.74V121.936ZM82.7253 113.8H93.757V116.774H90.0361V129.915H93.757V132.876H82.7253V129.915H86.3545V116.774H82.7253V113.8ZM125.364 132.876H121.695L116.389 120.573V132.876H112.681V113.8H116.389L121.656 126.05L121.669 113.8H125.364V132.876ZM143.633 132.876V113.8H150.039C151.079 113.8 152.022 113.904 152.869 114.114C153.725 114.324 154.455 114.643 155.057 115.071C155.66 115.499 156.123 116.04 156.446 116.695C156.778 117.35 156.944 118.123 156.944 119.014C156.935 119.591 156.83 120.137 156.629 120.652C156.437 121.158 156.149 121.604 155.765 121.988C155.555 122.198 155.315 122.39 155.044 122.565C154.782 122.739 154.49 122.888 154.166 123.01V123.023C154.795 123.198 155.293 123.421 155.66 123.691C156.036 123.962 156.35 124.277 156.603 124.635C156.865 125.019 157.057 125.438 157.18 125.893C157.311 126.338 157.376 126.801 157.376 127.281C157.376 128.198 157.219 129.006 156.905 129.705C156.59 130.404 156.14 130.989 155.555 131.461C154.97 131.932 154.258 132.286 153.42 132.522C152.581 132.758 151.638 132.876 150.59 132.876H143.633ZM147.327 124.464V129.902H150.603C151.083 129.902 151.511 129.841 151.887 129.718C152.271 129.596 152.59 129.43 152.843 129.22C153.123 128.985 153.332 128.701 153.472 128.369C153.62 128.037 153.695 127.666 153.695 127.255C153.695 126.827 153.638 126.443 153.524 126.102C153.42 125.762 153.249 125.473 153.013 125.237C152.778 124.993 152.472 124.805 152.096 124.674C151.721 124.543 151.275 124.473 150.76 124.464H147.327ZM147.327 121.805H150.066C150.625 121.796 151.118 121.731 151.546 121.608C151.974 121.477 152.319 121.285 152.581 121.032C152.799 120.831 152.965 120.586 153.079 120.298C153.201 120.01 153.262 119.682 153.262 119.315C153.262 118.931 153.21 118.595 153.105 118.307C153.009 118.018 152.861 117.778 152.66 117.586C152.398 117.315 152.044 117.119 151.598 116.996C151.162 116.874 150.646 116.809 150.052 116.8H147.327V121.805ZM181.004 125.748H178.213V132.876H174.532V113.8H180.925C181.982 113.8 182.939 113.926 183.795 114.18C184.651 114.424 185.384 114.787 185.996 115.267C186.598 115.747 187.061 116.346 187.384 117.062C187.716 117.778 187.882 118.608 187.882 119.551C187.882 120.233 187.799 120.848 187.633 121.399C187.476 121.94 187.249 122.425 186.952 122.853C186.646 123.29 186.279 123.67 185.852 123.993C185.432 124.316 184.961 124.595 184.437 124.831L188.537 132.705V132.876H184.594L181.004 125.748ZM178.213 122.761H180.938C181.506 122.761 182.004 122.683 182.432 122.525C182.869 122.359 183.222 122.124 183.493 121.818C183.72 121.573 183.891 121.281 184.004 120.94C184.126 120.599 184.188 120.219 184.188 119.8C184.188 119.294 184.109 118.848 183.952 118.464C183.803 118.071 183.576 117.748 183.27 117.494C183 117.267 182.668 117.093 182.275 116.97C181.882 116.848 181.432 116.787 180.925 116.787H178.213V122.761ZM206.217 113.8H217.248V116.774H213.528V129.915H217.248V132.876H206.217V129.915H209.846V116.774H206.217V113.8ZM248.016 124.517H240.182V129.902H249.34V132.876H236.487V113.8H249.3V116.8H240.182V121.608H248.016V124.517ZM279.256 124.975H271.081V132.876H267.386V113.8H280.278V116.8H271.081V121.988H279.256V124.975Z" fill="currentColor"/>
<defs>
<clipPath id="clip0_16_178">
<rect width="288.82" height="98.9441" fill="currentColor" transform="translate(5.59009 5.93164)"/>
</clipPath>
<clipPath id="clip1_16_178">
<rect width="98.7578" height="98.7578" fill="currentColor" transform="translate(13.4163 6.02472)"/>
</clipPath>
<clipPath id="clip2_16_178">
<rect width="168.82" height="98.9441" fill="currentColor" transform="translate(117.764 5.93158)"/>
</clipPath>
<clipPath id="clip3_16_178">
<rect width="168.82" height="77.6459" fill="currentColor" transform="translate(117.764 27.2297)"/>
</clipPath>
</defs>
</svg>
